<svg xmlns="http://www.w3.org/2000/svg" xmlns:xlink="http://www.w3.org/1999/xlink" xml:space="preserve" viewBox="0 0 50 45.5" width="50" height="45.5"><defs><path id="a" d="M21.3 17.9s4.9-6.4 6.8-9c.6 2.8 1.8 8.9 1.8 8.9h9.5l-9 6.6s.5 8.9.7 12.1l-9.3-6.7S14 34 9.9 36.2c2.4-3.9 7-11.1 7-11.1s-3.8-5-5.5-7.2m38.5-3.7H33.4c-.3-1.5-3-14.2-3-14.2S20.1 13.5 19.5 14.3H3.6s7.6 10.3 8.4 11.3c-.7 1.1-12 19.9-12 19.9S19.7 35 20.8 34.4c1 .7 14.6 10.7 14.6 10.7s-.9-18.2-1-19.3c.9-.6 15.5-11.6 15.5-11.6"/></defs><clipPath id="b"><use xlink:href="#a" overflow="visible"/></clipPath><g clip-path="url(#b)"><defs><path id="c" d="M0-.5h212v46H0z"/></defs><clipPath id="d"><use xlink:href="#c" overflow="visible"/></clipPath><path fill="#e32313" d="M-5-5h59.9v55.5H-5z" clip-path="url(#d)"/></g></svg>